# xmcd
#
# Track frame offsets: 
#        150
#        15412
#        31180
#        47381
#        61296
#        79951
#        97771
#        110082
#        130054
#        155728
#        172094
#        190982
#
# Disc length: 2737 seconds
#
# Revision: 1
# Processed by: cddbd v1.5.2PL0 Copyright (c) Steve Scherf et al.
# Submitted via: ExactAudioCopyFreeDBPlugin 1.0
#
DISCID=930aaf0c
DTITLE=Nine Below Zero - Avalanche
DYEAR=2019
DGENRE=Blues
TTITLE0=I Wanna Be A Wannabe
TTITLE1=Ter Wit Ter Woo
TTITLE2=Race To The Bottom
TTITLE3=Hey Siri! (Go **** Yourself)
TTITLE4=Austerity Blues
TTITLE5=Roots And Wings
TTITLE6=Zebulon
TTITLE7=One Of Sour, Two Of Sweet
TTITLE8=Picture No Sound
TTITLE9=Recycle Me
TTITLE10=Breadhead
TTITLE11=I Drink But I Don't Get Drunk
EXTD=
EXTT0=
EXTT1=
EXTT2=
EXTT3=
EXTT4=
EXTT5=
EXTT6=
EXTT7=
EXTT8=
EXTT9=
EXTT10=
EXTT11=
PLAYORDER=
